<?xml version="1.0" encoding="utf-8"?><svg xmlns="http://www.w3.org/2000/svg" xmlns:xlink="http://www.w3.org/1999/xlink"><defs><svg viewBox="0 0 24 24" id="archive" xmlns="http://www.w3.org/2000/svg"><path fill="currentColor" d="m12 18 4-4-1.4-1.4-1.6 1.6V10h-2v4.2l-1.6-1.6L8 14l4 4ZM5 8v11h14V8H5Zm0 13q-.825 0-1.412-.587T3 19V6.525q0-.35.113-.675t.337-.6L4.7 3.725q.275-.35.687-.538T6.25 3h11.5q.45 0 .863.188t.687.537l1.25 1.525q.225.275.338.6t.112.675V19q0 .825-.587 1.413T19 21H5Zm.4-15h13.2l-.85-1H6.25L5.4 6Zm6.6 7.5Z"/></svg><svg viewBox="0 0 24 24" id="chat-bubble" xmlns="http://www.w3.org/2000/svg"><path fill="currentColor" d="M2 22V4q0-.825.588-1.412T4 2h16q.825 0 1.413.588T22 4v12q0 .825-.587 1.413T20 18H6l-4 4Zm3.15-6H20V4H4v13.125L5.15 16ZM4 16V4v12Z"/></svg><svg viewBox="0 0 24 24" id="chevron-right" xmlns="http://www.w3.org/2000/svg"><path fill="currentColor" d="M12.6 12 8 7.4 9.4 6l6 6-6 6L8 16.6z"/></svg><svg viewBox="0 0 24 24" id="chevron-up" xmlns="http://www.w3.org/2000/svg"><path fill="currentColor" d="m12 10.8-4.6 4.6L6 14l6-6 6 6-1.4 1.4z"/></svg><svg viewBox="0 0 24 24" id="circle" xmlns="http://www.w3.org/2000/svg"><path fill="currentColor" d="M12 12Zm0 7q-2.9 0-4.95-2.05T5 12q0-2.9 2.05-4.95T12 5q2.9 0 4.95 2.05T19 12q0 2.9-2.05 4.95T12 19Zm0-2q2.075 0 3.538-1.463T17 12q0-2.075-1.463-3.537T12 7Q9.925 7 8.463 8.463T7 12q0 2.075 1.463 3.538T12 17Z"/></svg><svg viewBox="0 0 24 24" id="close" xmlns="http://www.w3.org/2000/svg"><path fill="currentColor" d="M6.4 19 5 17.6l5.6-5.6L5 6.4 6.4 5l5.6 5.6L17.6 5 19 6.4 13.4 12l5.6 5.6-1.4 1.4-5.6-5.6z"/></svg><svg viewBox="0 0 24 24" id="contract" xmlns="http://www.w3.org/2000/svg"><path fill="currentColor" d="M6 22q-1.25 0-2.125-.875T3 19v-3h3V2h15v17q0 1.25-.875 2.125T18 22H6Zm12-2q.425 0 .713-.288T19 19V4H8v12h9v3q0 .425.288.713T18 20ZM9 9V7h9v2H9Zm0 3v-2h9v2H9Zm-3 8h9v-2H5v1q0 .425.288.713T6 20Zm0 0H5h10-9Z"/></svg><svg viewBox="0 0 24 24" id="deployed-code" xmlns="http://www.w3.org/2000/svg"><path fill="currentColor" d="M11 19.425v-6.85L5 9.1v6.85l6 3.475Zm2 0 6-3.475V9.1l-6 3.475v6.85Zm-1-8.575 5.925-3.425L12 4 6.075 7.425 12 10.85ZM4 17.7q-.475-.275-.737-.725t-.263-1v-7.95q0-.55.263-1T4 6.3l7-4.025Q11.475 2 12 2t1 .275L20 6.3q.475.275.738.725t.262 1v7.95q0 .55-.262 1T20 17.7l-7 4.025Q12.525 22 12 22t-1-.275L4 17.7Zm8-5.7Z"/></svg><svg viewBox="0 0 24 24" id="error" xmlns="http://www.w3.org/2000/svg"><path fill="currentColor" d="M12 17q.425 0 .713-.288T13 16q0-.425-.288-.712T12 15q-.425 0-.712.288T11 16q0 .425.288.713T12 17Zm-1-4h2V7h-2v6Zm1 9q-2.075 0-3.9-.788t-3.175-2.137q-1.35-1.35-2.137-3.175T2 12q0-2.075.788-3.9t2.137-3.175q1.35-1.35 3.175-2.137T12 2q2.075 0 3.9.788t3.175 2.137q1.35 1.35 2.138 3.175T22 12q0 2.075-.788 3.9t-2.137 3.175q-1.35 1.35-3.175 2.138T12 22Zm0-2q3.35 0 5.675-2.325T20 12q0-3.35-2.325-5.675T12 4Q8.65 4 6.325 6.325T4 12q0 3.35 2.325 5.675T12 20Zm0-8Z"/></svg><svg viewBox="0 0 24 24" id="filter" xmlns="http://www.w3.org/2000/svg"><path fill="currentColor" d="M11 20q-.425 0-.712-.288T10 19v-6L4.2 5.6q-.375-.5-.112-1.05T5 4h14q.65 0 .913.55T19.8 5.6L14 13v6q0 .425-.288.713T13 20h-2Zm1-7.7L16.95 6h-9.9L12 12.3Zm0 0Z"/></svg><svg viewBox="0 0 24 24" id="folder" xmlns="http://www.w3.org/2000/svg"><path fill="currentColor" d="M4 20q-.825 0-1.412-.587T2 18V6q0-.825.588-1.412T4 4h6l2 2h8q.825 0 1.413.588T22 8v10q0 .825-.587 1.413T20 20H4Zm0-2h16V8h-8.825l-2-2H4v12Zm0 0V6v12Z"/></svg><svg viewBox="0 0 24 24" id="format" xmlns="http://www.w3.org/2000/svg"><path fill="currentColor" d="M19 19H8q-.825 0-1.412-.587T6 17V3q0-.825.588-1.412T8 1h7l6 6v10q0 .825-.587 1.413T19 19M14 8V3H8v14h11V8zM4 23q-.825 0-1.412-.587T2 21V7h2v14h11v2zM8 3v5zv14z"/></svg><svg viewBox="0 0 24 24" id="gavel" xmlns="http://www.w3.org/2000/svg"><path fill="currentColor" d="M4 21v-2h12v2H4Zm5.65-4.85L4 10.5l2.1-2.15L11.8 14l-2.15 2.15ZM16 9.8l-5.65-5.7L12.5 2l5.65 5.65L16 9.8ZM20.6 20 7.55 6.95l1.4-1.4L22 18.6 20.6 20Z"/></svg><svg viewBox="0 0 24 24" id="info" xmlns="http://www.w3.org/2000/svg"><path fill="currentColor" d="M11 17h2v-6h-2v6Zm1-8q.425 0 .713-.288T13 8q0-.425-.288-.712T12 7q-.425 0-.712.288T11 8q0 .425.288.713T12 9Zm0 13q-2.075 0-3.9-.788t-3.175-2.137q-1.35-1.35-2.137-3.175T2 12q0-2.075.788-3.9t2.137-3.175q1.35-1.35 3.175-2.137T12 2q2.075 0 3.9.788t3.175 2.137q1.35 1.35 2.138 3.175T22 12q0 2.075-.788 3.9t-2.137 3.175q-1.35 1.35-3.175 2.138T12 22Zm0-2q3.35 0 5.675-2.325T20 12q0-3.35-2.325-5.675T12 4Q8.65 4 6.325 6.325T4 12q0 3.35 2.325 5.675T12 20Zm0-8Z"/></svg><svg viewBox="0 0 24 24" id="language" xmlns="http://www.w3.org/2000/svg"><path fill="currentColor" d="M12 22q-2.05 0-3.875-.788t-3.187-2.15q-1.363-1.362-2.15-3.187T2 12q0-2.075.788-3.887t2.15-3.175Q6.3 3.575 8.124 2.788T12 2q2.075 0 3.888.788t3.174 2.15q1.363 1.362 2.15 3.175T22 12q0 2.05-.788 3.875t-2.15 3.188q-1.362 1.362-3.175 2.15T12 22Zm0-2.05q.65-.9 1.125-1.875T13.9 16h-3.8q.3 1.1.775 2.075T12 19.95Zm-2.6-.4q-.45-.825-.788-1.713T8.05 16H5.1q.725 1.25 1.813 2.175T9.4 19.55Zm5.2 0q1.4-.45 2.488-1.375T18.9 16h-2.95q-.225.95-.562 1.838T14.6 19.55ZM4.25 14h3.4q-.075-.5-.112-.987T7.5 12q0-.525.038-1.012T7.65 10h-3.4q-.125.5-.187.988T4 12q0 .525.063 1.013T4.25 14Zm5.4 0h4.7q.075-.5.113-.987T14.5 12q0-.525-.038-1.012T14.35 10h-4.7q-.075.5-.112.988T9.5 12q0 .525.038 1.013T9.65 14Zm6.7 0h3.4q.125-.5.188-.987T20 12q0-.525-.062-1.012T19.75 10h-3.4q.075.5.113.988T16.5 12q0 .525-.038 1.013T16.35 14Zm-.4-6h2.95q-.725-1.25-1.812-2.175T14.6 4.45q.45.825.788 1.713T15.95 8ZM10.1 8h3.8q-.3-1.1-.775-2.075T12 4.05q-.65.9-1.125 1.875T10.1 8Zm-5 0h2.95q.225-.95.563-1.838T9.4 4.45Q8 4.9 6.912 5.825T5.1 8Z"/></svg><svg viewBox="0 0 24 24" id="menu" xmlns="http://www.w3.org/2000/svg"><path fill="currentColor" d="M3 18v-2h18v2H3Zm0-5v-2h18v2H3Zm0-5V6h18v2H3Z"/></svg><svg viewBox="0 0 24 24" id="menu-book" xmlns="http://www.w3.org/2000/svg"><path fill="currentColor" d="M14 9.9V8.2q.825-.35 1.688-.525T17.5 7.5q.65 0 1.275.1T20 7.85v1.6q-.6-.225-1.213-.337T17.5 9q-.95 0-1.825.238T14 9.9Zm0 5.5v-1.7q.825-.35 1.688-.525T17.5 13q.65 0 1.275.1t1.225.25v1.6q-.6-.225-1.213-.338T17.5 14.5q-.95 0-1.825.225T14 15.4Zm0-2.75v-1.7q.825-.35 1.688-.525t1.812-.175q.65 0 1.275.1T20 10.6v1.6q-.6-.225-1.213-.338T17.5 11.75q-.95 0-1.825.238T14 12.65ZM6.5 16q1.175 0 2.288.263T11 17.05V7.2q-1.025-.6-2.175-.9T6.5 6q-.9 0-1.788.175T3 6.7v9.9q.875-.3 1.738-.45T6.5 16Zm6.5 1.05q1.1-.525 2.213-.788T17.5 16q.9 0 1.763.15T21 16.6V6.7q-.825-.35-1.713-.525T17.5 6q-1.175 0-2.325.3T13 7.2v9.85ZM12 20q-1.2-.95-2.6-1.475T6.5 18q-1.05 0-2.062.275T2.5 19.05q-.525.275-1.012-.025T1 18.15V6.1q0-.275.138-.525T1.55 5.2q1.15-.6 2.4-.9T6.5 4q1.45 0 2.838.375T12 5.5q1.275-.75 2.663-1.125T17.5 4q1.3 0 2.55.3t2.4.9q.275.125.413.375T23 6.1v12.05q0 .575-.487.875t-1.013.025q-.925-.5-1.937-.775T17.5 18q-1.5 0-2.9.525T12 20Zm-5-8.35Z"/></svg><svg viewBox="0 0 24 24" id="more-horiz" xmlns="http://www.w3.org/2000/svg"><path fill="currentColor" d="M6 14q-.825 0-1.412-.587T4 12q0-.825.588-1.412T6 10q.825 0 1.413.588T8 12q0 .825-.587 1.413T6 14Zm6 0q-.825 0-1.412-.587T10 12q0-.825.588-1.412T12 10q.825 0 1.413.588T14 12q0 .825-.587 1.413T12 14Zm6 0q-.825 0-1.412-.587T16 12q0-.825.588-1.412T18 10q.825 0 1.413.588T20 12q0 .825-.587 1.413T18 14Z"/></svg><svg viewBox="0 0 24 24" id="note" xmlns="http://www.w3.org/2000/svg"><path fill="currentColor" d="M6 22q-.825 0-1.412-.587T4 20V4q0-.825.588-1.412T6 2h8l6 6v12q0 .825-.587 1.413T18 22H6Zm7-13V4H6v16h12V9h-5ZM6 4v5-5 16V4Z"/></svg><svg viewBox="0 0 24 24" id="office" xmlns="http://www.w3.org/2000/svg"><path fill="currentColor" d="M2 21V3h10v4h10v14H2Zm2-2h6v-2H4v2Zm0-4h6v-2H4v2Zm0-4h6V9H4v2Zm0-4h6V5H4v2Zm8 12h8V9h-8v10Zm2-6v-2h4v2h-4Zm0 4v-2h4v2h-4Z"/></svg><svg viewBox="0 0 24 24" id="privacy-tip" xmlns="http://www.w3.org/2000/svg"><path fill="currentColor" d="M11 17h2v-6h-2v6Zm1-8q.425 0 .713-.288T13 8q0-.425-.288-.712T12 7q-.425 0-.712.288T11 8q0 .425.288.713T12 9Zm0 13q-3.475-.875-5.738-3.988T4 11.1V5l8-3 8 3v6.1q0 3.8-2.262 6.913T12 22Zm0-2.1q2.6-.825 4.3-3.3t1.7-5.5V6.375l-6-2.25-6 2.25V11.1q0 3.025 1.7 5.5t4.3 3.3Zm0-7.9Z"/></svg><svg viewBox="0 0 24 24" id="search" xmlns="http://www.w3.org/2000/svg"><path fill="currentColor" d="m19.6 21-6.3-6.3q-.75.6-1.725.95T9.5 16q-2.725 0-4.612-1.888T3 9.5q0-2.725 1.888-4.612T9.5 3q2.725 0 4.613 1.888T16 9.5q0 1.1-.35 2.075T14.7 13.3l6.3 6.3-1.4 1.4ZM9.5 14q1.875 0 3.188-1.312T14 9.5q0-1.875-1.312-3.187T9.5 5Q7.625 5 6.313 6.313T5 9.5q0 1.875 1.313 3.188T9.5 14Z"/></svg><svg viewBox="0 0 24 24" id="traffic" xmlns="http://www.w3.org/2000/svg"><path fill="currentColor" d="M12 18q.65 0 1.075-.425T13.5 16.5q0-.65-.425-1.075T12 15q-.65 0-1.075.425T10.5 16.5q0 .65.425 1.075T12 18Zm0-4.5q.65 0 1.075-.425T13.5 12q0-.65-.425-1.075T12 10.5q-.65 0-1.075.425T10.5 12q0 .65.425 1.075T12 13.5ZM12 9q.65 0 1.075-.425T13.5 7.5q0-.65-.425-1.075T12 6q-.65 0-1.075.425T10.5 7.5q0 .65.425 1.075T12 9Zm-5 6v-1.15q-1.275-.35-2.137-1.4T4 10h3V8.85q-1.275-.35-2.137-1.4T4 5h3q0-.825.588-1.412T9 3h6q.825 0 1.413.588T17 5h3q0 1.4-.862 2.45T17 8.85V10h3q0 1.4-.862 2.45T17 13.85V15h3q0 1.4-.862 2.45T17 18.85V19q0 .825-.587 1.413T15 21H9q-.825 0-1.412-.587T7 19v-.15q-1.275-.35-2.137-1.4T4 15h3Zm2 4h6V5H9v14Zm0 0V5v14Z"/></svg></defs></svg>