<svg
  viewBox="0 0 26 10"
  fill="none"
  xmlns="http://www.w3.org/2000/svg"
>
    <path
      d="M25.3481 8.76309C24.9293 8.98054 24.438 9.15772 23.8743 9.29463C23.3186 9.43154 22.7106 9.5 22.0503 9.5C21.3657 9.5 20.7336 9.39128 20.1537 9.17383C19.5819 8.95638 19.0867 8.65034 18.6679 8.2557C18.2572 7.86107 17.9351 7.38993 17.7015 6.84228C17.468 6.28658 17.3512 5.67047 17.3512 4.99396C17.3512 4.3094 17.468 3.68926 17.7015 3.13356C17.9431 2.57785 18.2733 2.10671 18.6921 1.72013C19.1108 1.3255 19.6021 1.02349 20.1658 0.814094C20.7295 0.604698 21.3375 0.5 21.9899 0.5C22.6663 0.5 23.2945 0.604698 23.8743 0.814094C24.4542 1.01544 24.9253 1.28926 25.2877 1.63557L23.983 3.12148C23.7817 2.88792 23.5159 2.69866 23.1858 2.55369C22.8556 2.40067 22.4811 2.32416 22.0623 2.32416C21.6999 2.32416 21.3657 2.39262 21.0597 2.52953C20.7537 2.65839 20.4879 2.84362 20.2624 3.08524C20.037 3.31879 19.8598 3.60067 19.7309 3.93087C19.6101 4.25302 19.5497 4.60738 19.5497 4.99396C19.5497 5.38859 19.6061 5.75101 19.7188 6.08121C19.8316 6.41141 19.9967 6.69732 20.2141 6.93893C20.4396 7.17248 20.7134 7.35772 21.0356 7.49463C21.3657 7.62349 21.7402 7.68792 22.159 7.68792C22.4006 7.68792 22.6301 7.67181 22.8475 7.6396C23.065 7.59933 23.2663 7.53893 23.4515 7.45839V5.9H21.8207V4.23289H25.3481V8.76309Z"
      fill="currentColor"
    />
    <path
      d="M13.5311 9.28259L10.0884 3.6893H10.0522L10.1005 9.28259H8.09521V0.729568H10.4508L13.8815 6.31078H13.9177L13.8694 0.729568H15.8746V9.28259H13.5311Z"
      fill="currentColor"
    />
    <path
      d="M0.651978 9.28259V0.729568H6.40199V2.48125H2.64515V4.08796H6.19663V5.74299H2.64515V7.51883H6.61943V9.28259H0.651978Z"
      fill="currentColor"
    />
  </svg>
