<svg
  viewBox="0 0 22 10"
  fill="none"
  xmlns="http://www.w3.org/2000/svg"
>
    <path
      d="M21.8453 0.787994V2.43199H18.4133V4.20799H20.9813V5.80399H18.4133V9.21199H16.3613V0.787994H21.8453Z"
      fill="currentColor"
    />
    <path
      d="M10.7986 0.787994C11.6866 0.787994 12.4626 0.963994 13.1266 1.31599C13.7906 1.66799 14.3026 2.16399 14.6626 2.80399C15.0306 3.43599 15.2146 4.16799 15.2146 4.99999C15.2146 5.82399 15.0306 6.55599 14.6626 7.19599C14.3026 7.83599 13.7866 8.33199 13.1146 8.68399C12.4506 9.03599 11.6786 9.21199 10.7986 9.21199H7.64258V0.787994H10.7986ZM10.6666 7.43599C11.4426 7.43599 12.0466 7.22399 12.4786 6.79999C12.9106 6.37599 13.1266 5.77599 13.1266 4.99999C13.1266 4.22399 12.9106 3.61999 12.4786 3.18799C12.0466 2.75599 11.4426 2.53999 10.6666 2.53999H9.69458V7.43599H10.6666Z"
      fill="currentColor"
    />
    <path
      d="M6.5743 3.49999C6.5743 3.98799 6.4623 4.43599 6.2383 4.84399C6.0143 5.24399 5.6703 5.56799 5.2063 5.81599C4.7423 6.06399 4.1663 6.18799 3.4783 6.18799H2.2063V9.21199H0.154297V0.787994H3.4783C4.1503 0.787994 4.7183 0.903994 5.1823 1.13599C5.6463 1.36799 5.9943 1.68799 6.2263 2.09599C6.4583 2.50399 6.5743 2.97199 6.5743 3.49999ZM3.3223 4.55599C3.7143 4.55599 4.0063 4.46399 4.1983 4.27999C4.3903 4.09599 4.4863 3.83599 4.4863 3.49999C4.4863 3.16399 4.3903 2.90399 4.1983 2.71999C4.0063 2.53599 3.7143 2.44399 3.3223 2.44399H2.2063V4.55599H3.3223Z"
      fill="currentColor"
    />
  </svg>
