<svg xmlns="http://www.w3.org/2000/svg" version="1.1" xmlns:xlink="http://www.w3.org/1999/xlink" xmlns:svgjs="http://svgjs.com/svgjs" width="128" height="128"><svg width="128" height="128" viewBox="0 0 128 128" fill="none" xmlns="http://www.w3.org/2000/svg">
<rect width="128" height="128" fill="#F2F6F8"></rect>
<path d="M37 58.5969C37 50.8217 41.6792 45.4186 48.1288 41.8605C46.2318 38.5659 45.4731 35.0078 45.4731 30.7907C45.4731 21.1705 53.0609 13 66.2131 13C75.6979 13 79.9977 16.1628 83.0328 18.4031L78.4801 30.2636C76.5831 28.6822 72.9157 25.9147 67.4778 25.9147C62.6721 25.9147 60.1429 28.155 60.1429 30.9225C60.1429 35.4031 63.3044 37.1163 68.9953 41.2016L78.2272 47.7907C86.5738 53.7209 91 59.783 91 68.4806C91 76.124 86.4473 81.3953 79.7447 85.2171C81.8946 88.6434 82.9063 92.4651 82.9063 96.814C82.9063 106.434 75.0656 115 61.281 115C51.2904 115 45.726 111.31 42.185 108.147L47.1171 95.3643C49.5199 98 53.9461 101.69 60.1429 101.69C65.4543 101.69 67.8571 99.845 67.8571 96.9457C67.8571 92.8605 65.0749 90.2248 58.7518 85.7442L49.5199 79.2868C41.2998 73.4884 37 67.2946 37 58.5969ZM69.5012 74.8062C70.5129 75.5969 71.5246 76.2558 72.4098 77.0465C75.0656 75.4651 76.8361 73.6202 76.8361 70.8527C76.8361 65.845 73.9274 63.2093 67.2248 58.4651L58.4988 52.2713C57.3607 51.4806 56.3489 50.6899 55.3372 49.8992C52.808 51.4806 51.0375 53.4574 51.0375 56.2248C51.0375 61.2326 54.3255 63.8682 60.9016 68.6124L69.5012 74.8062Z" fill="#004B76"></path>
</svg><style>@media (prefers-color-scheme: light) { :root { filter: none; } }
</style></svg>