<?xml version="1.0" standalone="no"?>
<!DOCTYPE svg PUBLIC "-//W3C//DTD SVG 20010904//EN"
 "http://www.w3.org/TR/2001/REC-SVG-20010904/DTD/svg10.dtd">
<svg version="1.0" xmlns="http://www.w3.org/2000/svg"
 width="512.000000pt" height="512.000000pt" viewBox="0 0 512.000000 512.000000"
 preserveAspectRatio="xMidYMid meet">
 <rect width="100%" height="100%" fill="#f2f6f8" />
  <g transform="translate(0.000000,512.000000) scale(0.100000,-0.100000)"
  fill="#004a77" stroke="none">
  <path d="M2530 4594 c-14 -2 -52 -9 -85 -15 -399 -69 -643 -366 -622 -754 7
  -125 27 -211 68 -304 16 -35 29 -67 29 -71 0 -4 -36 -30 -80 -59 -246 -160
  -372 -394 -356 -662 15 -241 104 -428 293 -610 91 -88 135 -121 383 -294 440
  -307 522 -385 549 -532 26 -134 -47 -213 -220 -236 -189 -25 -360 32 -534 179
  l-72 62 -97 -252 -97 -251 33 -29 c53 -45 164 -115 234 -147 166 -75 418 -113
  613 -91 324 36 554 179 671 417 61 124 73 185 67 350 -5 155 -22 224 -83 349
  -19 38 -33 70 -31 71 1 0 36 23 77 49 162 106 287 257 337 410 23 71 26 97 26
  211 1 149 -15 227 -67 340 -47 101 -99 177 -180 263 -91 95 -179 165 -541 422
  -301 215 -379 279 -410 339 -24 48 -36 133 -23 178 15 56 81 117 147 137 70
  21 215 21 294 0 73 -19 177 -70 240 -118 l46 -35 20 52 c10 29 51 135 90 236
  65 171 69 185 53 198 -104 81 -253 148 -398 178 -76 16 -323 28 -374 19z
  m-252 -1517 c31 -24 165 -120 297 -214 357 -254 430 -322 475 -441 24 -63 27
  -176 6 -226 -17 -42 -65 -95 -115 -131 -36 -24 -43 -26 -60 -14 -578 418 -633
  460 -712 539 -79 80 -117 154 -126 244 -7 73 6 121 48 182 27 40 103 104 122
  104 5 0 34 -19 65 -43z"/>
  </g>
</svg>
