<svg width="251" height="83" viewBox="0 0 251 83" fill="none" xmlns="http://www.w3.org/2000/svg">
<g clip-path="url(#clip0_90_4)">
<rect width="251" height="83" fill="white"/>
<path d="M59.744 5.128C59.744 3.736 58.976 3.064 57.328 3.064H56.656V7.4H57.264C58.944 7.4 59.744 6.568 59.744 5.128ZM56.656 8.504V13H55.264V1.96H57.328C59.984 1.96 61.232 3.016 61.232 5.048C61.232 6.488 60.608 7.592 59.344 8.136L61.936 13H60.304L58.016 8.472C57.776 8.488 57.52 8.504 57.264 8.504H56.656ZM65.6618 6.184C64.7498 6.184 64.1578 6.984 64.0938 8.424H66.8777C66.8938 8.312 66.9097 8.104 66.9097 7.864C66.9097 6.808 66.4778 6.184 65.6618 6.184ZM68.2538 12.28C68.0458 12.504 67.4218 13.192 65.9658 13.192C64.0297 13.192 62.8137 11.96 62.8137 9.064C62.8137 6.344 64.1417 5.128 65.7418 5.128C67.1978 5.128 68.0938 6.072 68.0938 7.912C68.0938 8.568 68.0458 9.032 67.9978 9.4H64.0777C64.1578 11.192 64.8618 12.04 66.1578 12.04C67.0698 12.04 67.5978 11.544 67.7738 11.368L68.2538 12.28ZM74.718 5.896L74.174 6.808C74.03 6.664 73.63 6.232 72.862 6.232C71.758 6.232 70.894 7.016 70.894 9.048C70.894 11.304 71.646 12.04 72.75 12.04C73.534 12.04 73.934 11.672 74.094 11.496L74.622 12.392C74.414 12.632 73.822 13.192 72.622 13.192C70.91 13.192 69.55 12.152 69.55 9.144C69.55 6.2 71.246 5.128 72.766 5.128C73.934 5.128 74.478 5.624 74.718 5.896ZM79.0179 6.232C78.2339 6.232 77.7059 6.76 77.4499 7.08V13H76.1539V1.688L77.4499 1.544V6.104H77.4819C77.6419 5.864 78.2179 5.128 79.4499 5.128C80.7939 5.128 81.6419 5.928 81.6419 7.96V13H80.3459V8.056C80.3459 6.76 79.9139 6.232 79.0179 6.232ZM87.1437 12.856C87.0317 12.936 86.6317 13.192 85.9437 13.192C84.6317 13.192 83.9597 12.504 83.9597 10.808V6.376H83.0317V5.512L83.9597 5.32L84.1037 3.176H85.2557V5.32H87.0957L86.9358 6.376H85.2557V10.632C85.2557 11.72 85.5117 12.04 86.1677 12.04C86.5517 12.04 86.8397 11.896 86.9678 11.816L87.1437 12.856ZM92.3578 5.944L91.7978 6.872C91.6218 6.68 91.1738 6.232 90.4538 6.232C89.7658 6.232 89.3978 6.6 89.3978 7.048C89.3978 7.624 89.7178 7.944 90.4058 8.36L90.8858 8.648C91.9258 9.272 92.5658 9.896 92.5658 11.032C92.5658 12.248 91.6858 13.192 90.1178 13.192C88.8858 13.192 88.2618 12.632 87.9578 12.312L88.5818 11.288C88.8218 11.544 89.3018 12.04 90.1338 12.04C90.9018 12.04 91.3178 11.656 91.3178 11.16C91.3178 10.424 90.9338 10.168 90.1978 9.704L89.7178 9.4C88.7578 8.792 88.1818 8.168 88.1818 7.112C88.1818 5.976 89.1578 5.128 90.4058 5.128C91.5898 5.128 92.1018 5.688 92.3578 5.944ZM94.8155 3.464C94.2875 3.464 93.9355 3.08 93.9355 2.536C93.9355 2.008 94.2875 1.624 94.8155 1.624C95.3275 1.624 95.6795 2.008 95.6795 2.536C95.6795 3.08 95.3275 3.464 94.8155 3.464ZM95.4555 5.32V13H94.1595V5.32H95.4555ZM100.385 6.232C99.6008 6.232 99.0728 6.76 98.8168 7.08V13H97.5208V5.32H98.7048V6.184H98.7368C98.8808 5.912 99.5688 5.128 100.769 5.128C102.145 5.128 103.009 5.88 103.009 7.96V13H101.713V8.056C101.713 6.76 101.281 6.232 100.385 6.232ZM108.255 6.376H106.687V13H105.391V6.376H104.463V5.512L105.391 5.336V3.8C105.391 2.12 106.383 1.448 107.519 1.448C108.063 1.448 108.479 1.656 108.607 1.736L108.335 2.808C108.207 2.728 107.967 2.6 107.631 2.6C107.023 2.6 106.687 2.936 106.687 3.944V5.32H108.415L108.255 6.376ZM109.126 9.16C109.126 6.328 110.55 5.128 112.198 5.128C113.894 5.128 115.19 6.328 115.19 9.16C115.19 12.024 113.798 13.192 112.118 13.192C110.422 13.192 109.126 12.04 109.126 9.16ZM113.846 9.16C113.846 7.128 113.206 6.232 112.15 6.232C111.094 6.232 110.47 7.128 110.47 9.16C110.47 11.192 111.11 12.04 112.166 12.04C113.222 12.04 113.846 11.192 113.846 9.16ZM120.437 5.304L120.277 6.456C120.213 6.424 119.989 6.328 119.637 6.328C118.821 6.328 118.389 6.856 118.197 7.368V13H116.901V5.32H118.085V6.36H118.117C118.341 5.752 118.757 5.176 119.733 5.176C120.101 5.176 120.309 5.256 120.437 5.304ZM124.518 6.28C123.654 6.28 123.158 6.808 122.934 7.08V13H121.638V5.32H122.822V6.184H122.854C123.062 5.832 123.718 5.128 124.774 5.128C125.638 5.128 126.278 5.464 126.63 6.152C126.966 5.72 127.67 5.128 128.662 5.128C130.198 5.128 130.998 6.024 130.998 7.848V13H129.702V8.056C129.702 6.808 129.238 6.28 128.374 6.28C127.67 6.28 127.19 6.712 126.902 7.048C126.95 7.288 126.966 7.56 126.966 7.848V13H125.67V8.056C125.67 6.808 125.318 6.28 124.518 6.28ZM136.166 8.68V7.944C136.166 6.648 135.686 6.232 134.854 6.232C134.086 6.232 133.574 6.664 133.286 6.92L132.742 6.056C133.078 5.72 133.814 5.128 135.046 5.128C136.614 5.128 137.446 5.96 137.446 7.896V11.4C137.446 12.056 137.51 12.792 137.542 13H136.31C136.294 12.776 136.278 12.536 136.262 12.152H136.23C136.054 12.536 135.59 13.192 134.614 13.192C133.446 13.192 132.566 12.296 132.566 11.048C132.566 9.272 134.022 8.68 135.766 8.68H136.166ZM136.166 9.64L135.75 9.656C134.518 9.704 133.862 10.056 133.862 10.904C133.862 11.688 134.246 12.088 134.886 12.088C135.638 12.088 136.006 11.576 136.166 11.336V9.64ZM142.973 12.856C142.861 12.936 142.461 13.192 141.773 13.192C140.461 13.192 139.789 12.504 139.789 10.808V6.376H138.861V5.512L139.789 5.32L139.933 3.176H141.085V5.32H142.925L142.765 6.376H141.085V10.632C141.085 11.72 141.341 12.04 141.997 12.04C142.381 12.04 142.669 11.896 142.797 11.816L142.973 12.856ZM144.971 3.464C144.443 3.464 144.091 3.08 144.091 2.536C144.091 2.008 144.443 1.624 144.971 1.624C145.483 1.624 145.835 2.008 145.835 2.536C145.835 3.08 145.483 3.464 144.971 3.464ZM145.611 5.32V13H144.315V5.32H145.611ZM147.324 9.16C147.324 6.328 148.748 5.128 150.396 5.128C152.092 5.128 153.388 6.328 153.388 9.16C153.388 12.024 151.996 13.192 150.316 13.192C148.62 13.192 147.324 12.04 147.324 9.16ZM152.044 9.16C152.044 7.128 151.404 6.232 150.348 6.232C149.292 6.232 148.668 7.128 148.668 9.16C148.668 11.192 149.308 12.04 150.364 12.04C151.42 12.04 152.044 11.192 152.044 9.16ZM157.964 6.232C157.18 6.232 156.652 6.76 156.396 7.08V13H155.1V5.32H156.284V6.184H156.316C156.46 5.912 157.148 5.128 158.348 5.128C159.724 5.128 160.588 5.88 160.588 7.96V13H159.292V8.056C159.292 6.76 158.86 6.232 157.964 6.232ZM166.474 5.944L165.914 6.872C165.738 6.68 165.29 6.232 164.57 6.232C163.882 6.232 163.514 6.6 163.514 7.048C163.514 7.624 163.834 7.944 164.522 8.36L165.002 8.648C166.042 9.272 166.682 9.896 166.682 11.032C166.682 12.248 165.802 13.192 164.234 13.192C163.002 13.192 162.378 12.632 162.074 12.312L162.698 11.288C162.938 11.544 163.418 12.04 164.25 12.04C165.018 12.04 165.434 11.656 165.434 11.16C165.434 10.424 165.05 10.168 164.314 9.704L163.834 9.4C162.874 8.792 162.298 8.168 162.298 7.112C162.298 5.976 163.274 5.128 164.522 5.128C165.706 5.128 166.218 5.688 166.474 5.944ZM170.724 11.992C171.908 11.992 172.708 11.272 172.708 9.048C172.708 6.984 172.02 6.232 171.076 6.232C170.276 6.232 169.812 6.664 169.572 6.936V11.656C169.812 11.832 170.196 11.992 170.724 11.992ZM170.724 13.144C170.196 13.144 169.812 13.048 169.572 12.952V16.2H168.276V5.32H169.46V6.136H169.492C169.684 5.8 170.244 5.128 171.428 5.128C173.012 5.128 174.052 6.248 174.052 8.952C174.052 12.056 172.468 13.144 170.724 13.144ZM175.41 9.16C175.41 6.328 176.834 5.128 178.482 5.128C180.178 5.128 181.474 6.328 181.474 9.16C181.474 12.024 180.082 13.192 178.402 13.192C176.706 13.192 175.41 12.04 175.41 9.16ZM180.13 9.16C180.13 7.128 179.49 6.232 178.434 6.232C177.378 6.232 176.754 7.128 176.754 9.16C176.754 11.192 177.394 12.04 178.45 12.04C179.506 12.04 180.13 11.192 180.13 9.16ZM186.722 5.304L186.562 6.456C186.498 6.424 186.274 6.328 185.922 6.328C185.106 6.328 184.674 6.856 184.482 7.368V13H183.186V5.32H184.37V6.36H184.402C184.626 5.752 185.042 5.176 186.018 5.176C186.386 5.176 186.594 5.256 186.722 5.304ZM191.41 12.856C191.298 12.936 190.898 13.192 190.21 13.192C188.898 13.192 188.226 12.504 188.226 10.808V6.376H187.298V5.512L188.226 5.32L188.37 3.176H189.522V5.32H191.362L191.202 6.376H189.522V10.632C189.522 11.72 189.778 12.04 190.434 12.04C190.818 12.04 191.106 11.896 191.234 11.816L191.41 12.856ZM195.904 8.68V7.944C195.904 6.648 195.424 6.232 194.592 6.232C193.824 6.232 193.312 6.664 193.024 6.92L192.48 6.056C192.816 5.72 193.552 5.128 194.784 5.128C196.352 5.128 197.184 5.96 197.184 7.896V11.4C197.184 12.056 197.248 12.792 197.28 13H196.048C196.032 12.776 196.016 12.536 196 12.152H195.968C195.792 12.536 195.328 13.192 194.352 13.192C193.184 13.192 192.304 12.296 192.304 11.048C192.304 9.272 193.76 8.68 195.504 8.68H195.904ZM195.904 9.64L195.488 9.656C194.256 9.704 193.6 10.056 193.6 10.904C193.6 11.688 193.984 12.088 194.624 12.088C195.376 12.088 195.744 11.576 195.904 11.336V9.64ZM200.503 1.544V11.208C200.503 11.848 200.663 12.072 201.111 12.072C201.351 12.072 201.511 12.008 201.591 11.976L201.703 12.936C201.575 13 201.239 13.144 200.663 13.144C199.799 13.144 199.207 12.68 199.207 11.32V1.688L200.503 1.544Z" fill="black"/>
<path d="M61.472 21.272C61.472 23.496 60.16 24.984 57.456 24.984H56.656V29H55.264V17.96H57.52C60.256 17.96 61.472 19.192 61.472 21.272ZM59.984 21.352C59.984 19.912 59.264 19.064 57.52 19.064H56.656V23.88H57.456C59.248 23.88 59.984 22.872 59.984 21.352ZM66.5299 21.304L66.3699 22.456C66.3059 22.424 66.0819 22.328 65.7299 22.328C64.9139 22.328 64.4819 22.856 64.2899 23.368V29H62.9939V21.32H64.1779V22.36H64.2099C64.4339 21.752 64.8499 21.176 65.8259 21.176C66.1939 21.176 66.4019 21.256 66.5299 21.304ZM67.1906 25.16C67.1906 22.328 68.6146 21.128 70.2626 21.128C71.9586 21.128 73.2546 22.328 73.2546 25.16C73.2546 28.024 71.8626 29.192 70.1826 29.192C68.4866 29.192 67.1906 28.04 67.1906 25.16ZM71.9106 25.16C71.9106 23.128 71.2706 22.232 70.2146 22.232C69.1586 22.232 68.5346 23.128 68.5346 25.16C68.5346 27.192 69.1746 28.04 70.2306 28.04C71.2866 28.04 71.9106 27.192 71.9106 25.16ZM78.3762 28.856C78.2642 28.936 77.8642 29.192 77.1762 29.192C75.8642 29.192 75.1922 28.504 75.1922 26.808V22.376H74.2642V21.512L75.1922 21.32L75.3362 19.176H76.4882V21.32H78.3282L78.1683 22.376H76.4882V26.632C76.4882 27.72 76.7442 28.04 77.4002 28.04C77.7843 28.04 78.0722 27.896 78.2003 27.816L78.3762 28.856ZM79.2569 25.16C79.2569 22.328 80.6809 21.128 82.3289 21.128C84.0249 21.128 85.3209 22.328 85.3209 25.16C85.3209 28.024 83.9289 29.192 82.2489 29.192C80.5529 29.192 79.2569 28.04 79.2569 25.16ZM83.9769 25.16C83.9769 23.128 83.3369 22.232 82.2809 22.232C81.2249 22.232 80.6009 23.128 80.6009 25.16C80.6009 27.192 81.2409 28.04 82.2969 28.04C83.3529 28.04 83.9769 27.192 83.9769 25.16ZM90.4425 28.856C90.3305 28.936 89.9305 29.192 89.2425 29.192C87.9305 29.192 87.2585 28.504 87.2585 26.808V22.376H86.3305V21.512L87.2585 21.32L87.4025 19.176H88.5545V21.32H90.3945L90.2345 22.376H88.5545V26.632C88.5545 27.72 88.8105 28.04 89.4665 28.04C89.8505 28.04 90.1385 27.896 90.2665 27.816L90.4425 28.856ZM95.6245 21.32H96.9045L94.5045 29.448C93.9445 31.32 93.2725 32.296 91.7525 32.296C91.4325 32.296 91.2085 32.2 91.1285 32.152V31.032C91.2245 31.08 91.4005 31.144 91.6725 31.144C92.5845 31.144 93.0005 30.568 93.3365 29.384L93.4485 28.984L90.9685 21.32H92.3605L93.5605 25.576C93.8005 26.44 94.0245 27.224 94.0565 27.816H94.0885C94.1205 27.224 94.3125 26.456 94.5365 25.592L95.6245 21.32ZM100.625 27.992C101.809 27.992 102.609 27.272 102.609 25.048C102.609 22.984 101.921 22.232 100.977 22.232C100.177 22.232 99.713 22.664 99.473 22.936V27.656C99.713 27.832 100.097 27.992 100.625 27.992ZM100.625 29.144C100.097 29.144 99.713 29.048 99.473 28.952V32.2H98.177V21.32H99.361V22.136H99.393C99.585 21.8 100.145 21.128 101.329 21.128C102.913 21.128 103.953 22.248 103.953 24.952C103.953 28.056 102.369 29.144 100.625 29.144Z" fill="#004B76"/>
<rect x="40" width="5" height="83" fill="#004B76" fill-opacity="0.05"/>
<rect width="30" height="30" fill="#004B76" fill-opacity="0.05"/>
<path d="M10.5 14.0995C10.5 12.8036 11.2799 11.9031 12.3548 11.3101C12.0386 10.761 11.9122 10.168 11.9122 9.46512C11.9122 7.86176 13.1768 6.5 15.3689 6.5C16.9496 6.5 17.6663 7.02713 18.1721 7.40052L17.4133 9.37726C17.0972 9.1137 16.4859 8.65246 15.5796 8.65246C14.7787 8.65246 14.3571 9.02584 14.3571 9.48708C14.3571 10.2339 14.8841 10.5194 15.8326 11.2003L17.3712 12.2984C18.7623 13.2868 19.5 14.2972 19.5 15.7468C19.5 17.0207 18.7412 17.8992 17.6241 18.5362C17.9824 19.1072 18.1511 19.7442 18.1511 20.469C18.1511 22.0724 16.8443 23.5 14.5468 23.5C12.8817 23.5 11.9543 22.885 11.3642 22.3579L12.1862 20.2274C12.5867 20.6667 13.3244 21.2817 14.3571 21.2817C15.2424 21.2817 15.6429 20.9742 15.6429 20.491C15.6429 19.8101 15.1792 19.3708 14.1253 18.624L12.5867 17.5478C11.2166 16.5814 10.5 15.5491 10.5 14.0995ZM15.9169 16.801C16.0855 16.9328 16.2541 17.0426 16.4016 17.1744C16.8443 16.9109 17.1393 16.6034 17.1393 16.1421C17.1393 15.3075 16.6546 14.8682 15.5375 14.0775L14.0831 13.0452C13.8934 12.9134 13.7248 12.7817 13.5562 12.6499C13.1347 12.9134 12.8396 13.2429 12.8396 13.7041C12.8396 14.5388 13.3876 14.978 14.4836 15.7687L15.9169 16.801Z" fill="#004B76"/>
</g>
<defs>
<clipPath id="clip0_90_4">
<rect width="251" height="83" fill="white"/>
</clipPath>
</defs>
</svg>
