<?xml version="1.0" standalone="no"?>
<!DOCTYPE svg PUBLIC "-//W3C//DTD SVG 20010904//EN"
 "http://www.w3.org/TR/2001/REC-SVG-20010904/DTD/svg10.dtd">
<svg version="1.0" xmlns="http://www.w3.org/2000/svg"
 width="700.000000pt" height="700.000000pt" viewBox="0 0 700.000000 700.000000"
 preserveAspectRatio="xMidYMid meet">
<metadata>
Created by potrace 1.14, written by Peter Selinger 2001-2017
</metadata>
<g transform="translate(0.000000,700.000000) scale(0.100000,-0.100000)"
fill="#000000" stroke="none">
<path d="M3485 6284 c-336 -39 -569 -143 -746 -332 -171 -183 -249 -387 -249
-652 0 -200 33 -361 105 -517 l34 -74 -46 -27 c-149 -87 -313 -234 -393 -351
-61 -91 -116 -215 -141 -317 -26 -105 -30 -304 -10 -424 41 -239 154 -455 338
-645 122 -126 224 -206 573 -450 561 -393 646 -466 721 -623 36 -75 49 -186
29 -247 -39 -117 -187 -185 -406 -185 -235 0 -475 104 -657 285 -31 32 -59 56
-61 54 -14 -16 -266 -691 -261 -699 13 -22 165 -130 250 -179 151 -86 327
-145 522 -173 130 -19 426 -16 543 6 430 79 743 329 858 686 32 98 42 172 42
301 0 197 -41 376 -124 536 l-42 81 110 73 c149 98 301 250 374 374 101 171
141 364 122 582 -27 297 -146 531 -396 773 -128 124 -183 166 -694 531 -412
293 -508 375 -554 469 -33 69 -44 170 -26 234 26 93 126 169 259 197 80 17
268 6 360 -21 98 -28 208 -82 299 -148 41 -29 75 -52 76 -50 2 3 227 589 241
629 10 28 -190 154 -340 212 -187 74 -506 114 -710 91z m-385 -2069 c30 -23
190 -138 355 -255 482 -343 585 -428 666 -553 59 -91 74 -146 74 -267 0 -91
-3 -111 -23 -149 -31 -58 -102 -133 -163 -171 l-48 -32 -58 45 c-32 24 -206
151 -388 282 -508 366 -601 448 -670 589 -80 162 -70 316 27 438 40 51 146
130 162 121 6 -4 36 -25 66 -48z"/>
</g>
</svg>
